<svg viewBox="0 0 24 24" aria-hidden="true" class="r-1kihuf0 r-13v1u17 r-4qtqp9 r-yyyyoo r-1q142lx r-1472mwg r-mbgqwd r-dnmrzs r-bnwqim r-1plcrui r-lrvibr r-lrsllp" data-testid="icon"><g><path d="M16.5 3H2v18h15c3.038 0 5.5-2.46 5.5-5.5 0-1.4-.524-2.68-1.385-3.65-.08-.09-.089-.22-.023-.32.574-.87.908-1.91.908-3.03C22 5.46 19.538 3 16.5 3zm-.796 5.99c.457-.05.892-.17 1.296-.35-.302.45-.684.84-1.125 1.15.004.1.006.19.006.29 0 2.94-2.269 6.32-6.421 6.32-1.274 0-2.46-.37-3.459-1 .177.02.357.03.539.03 1.057 0 2.03-.35 2.803-.95-.988-.02-1.821-.66-2.109-1.54.138.03.28.04.425.04.206 0 .405-.03.595-.08-1.033-.2-1.811-1.1-1.811-2.18v-.03c.305.17.652.27 1.023.28-.606-.4-1.004-1.08-1.004-1.85 0-.4.111-.78.305-1.11 1.113 1.34 2.775 2.22 4.652 2.32-.038-.17-.058-.33-.058-.51 0-1.23 1.01-2.22 2.256-2.22.649 0 1.235.27 1.647.7.514-.1.997-.28 1.433-.54-.168.52-.526.96-.992 1.23z"></path></g></svg>